<?xml version="1.0" encoding="utf-8"?>
<!-- Generator: Adobe Illustrator 22.0.0, SVG Export Plug-In . SVG Version: 6.00 Build 0)  -->
<svg version="1.1"
	 id="svg3026" inkscape:version="0.48.4 r9939" sodipodi:docname="Neutral.svg" xmlns:cc="http://creativecommons.org/ns#" xmlns:dc="http://purl.org/dc/elements/1.1/" xmlns:inkscape="http://www.inkscape.org/namespaces/inkscape" xmlns:rdf="http://www.w3.org/1999/02/22-rdf-syntax-ns#" xmlns:sodipodi="http://sodipodi.sourceforge.net/DTD/sodipodi-0.dtd" xmlns:svg="http://www.w3.org/2000/svg"
	 xmlns="http://www.w3.org/2000/svg" xmlns:xlink="http://www.w3.org/1999/xlink" x="0px" y="0px" width="20px" height="20px"
	 viewBox="0 0 20 20" style="enable-background:new 0 0 20 20;" xml:space="preserve">
<style type="text/css">
	.st0{fill:#1A1A1A;}
</style>
<sodipodi:namedview  bordercolor="#666666" borderopacity="1" gridtolerance="10" guidetolerance="10" id="namedview3034" inkscape:current-layer="g3028" inkscape:cx="11.841239" inkscape:cy="6.8249439" inkscape:pageopacity="0" inkscape:pageshadow="2" inkscape:window-height="961" inkscape:window-maximized="1" inkscape:window-width="1280" inkscape:window-x="-8" inkscape:window-y="-8" inkscape:zoom="26.304372" objecttolerance="10" pagecolor="#ffffff" showgrid="true">
	<inkscape:grid  id="grid3040" type="xygrid"></inkscape:grid>
</sodipodi:namedview>
<g id="g3028">
	<path id="path4003" inkscape:connector-curvature="0" class="st0" d="M18,7.8c-0.2-0.7-0.5-1.4-0.8-2c-0.4-0.6-0.8-1.2-1.3-1.7
		c-0.5-0.5-1.1-0.9-1.7-1.3c-0.6-0.4-1.3-0.6-2-0.8c-0.7-0.2-1.4-0.3-2.2-0.3C9.3,1.7,8.5,1.8,7.8,2c-0.7,0.2-1.4,0.5-2,0.8
		C5.2,3.2,4.7,3.7,4.2,4.2C3.7,4.7,3.2,5.2,2.9,5.8C2.5,6.5,2.2,7.1,2,7.8C1.8,8.5,1.7,9.2,1.7,10c0,0.8,0.1,1.5,0.3,2.2
		c0.2,0.7,0.5,1.4,0.8,2c0.4,0.6,0.8,1.2,1.3,1.7c0.5,0.5,1.1,0.9,1.7,1.3c0.6,0.4,1.3,0.6,2,0.8c0.7,0.2,1.4,0.3,2.2,0.3
		c0.8,0,1.5-0.1,2.2-0.3c0.7-0.2,1.4-0.5,2-0.8c0.6-0.4,1.2-0.8,1.7-1.3c0.5-0.5,0.9-1.1,1.3-1.7c0.4-0.6,0.6-1.3,0.8-2
		c0.2-0.7,0.3-1.4,0.3-2.2C18.3,9.2,18.2,8.5,18,7.8z M11.5,14.2H8.6l3.1-3.1H4.9V8.9h6.7L8.6,5.8h2.9l4,4.2v0L11.5,14.2z
		 M19.6,12.6c-0.2,0.8-0.6,1.6-1,2.4c-0.4,0.7-1,1.4-1.6,2c-0.6,0.6-1.3,1.1-2,1.6c-0.7,0.4-1.5,0.8-2.4,1C11.8,19.9,10.9,20,10,20
		c-0.9,0-1.8-0.1-2.6-0.4c-0.8-0.2-1.6-0.6-2.4-1c-0.7-0.4-1.4-1-2-1.6c-0.6-0.6-1.1-1.3-1.6-2c-0.4-0.7-0.8-1.5-1-2.4
		C0.1,11.8,0,10.9,0,10c0-0.9,0.1-1.8,0.4-2.6c0.2-0.8,0.6-1.6,1-2.4c0.4-0.7,1-1.4,1.6-2c0.6-0.6,1.3-1.1,2-1.6
		c0.7-0.4,1.5-0.8,2.4-1C8.2,0.1,9.1,0,10,0c0.9,0,1.8,0.1,2.6,0.4c0.8,0.2,1.6,0.6,2.4,1c0.7,0.4,1.4,1,2,1.6
		c0.6,0.6,1.1,1.3,1.6,2c0.4,0.7,0.8,1.5,1,2.4C19.9,8.2,20,9.1,20,10C20,10.9,19.9,11.8,19.6,12.6z"/>
</g>
</svg>
